<svg width="1065" height="201" viewBox="0 0 1065 201" fill="none" xmlns="http://www.w3.org/2000/svg">
<path d="M60.7519 108.512L61.5503 107.91L60.8192 106.941L60.008 107.844L60.7519 108.512ZM49.6749 120.843L48.931 120.175L48.6749 120.46V120.843H49.6749ZM49.6749 157V158H50.6749V157H49.6749ZM1.18693 157H0.186927V158H1.18693V157ZM1.18693 10.7V9.69999H0.186927V10.7H1.18693ZM49.6749 10.7H50.6749V9.69999H49.6749V10.7ZM49.6749 63.786H48.6749V66.3802L50.4162 64.4572L49.6749 63.786ZM97.7449 10.7V9.69999H97.3014L97.0037 10.0288L97.7449 10.7ZM151.458 10.7L152.198 11.3727L153.718 9.69999H151.458V10.7ZM92.9379 75.072L92.198 74.3993L91.6421 75.0108L92.1379 75.672L92.9379 75.072ZM154.384 157V158H156.384L155.184 156.4L154.384 157ZM97.3269 157L96.5286 157.602L96.8286 158H97.3269V157ZM60.008 107.844L48.931 120.175L50.4188 121.511L61.4958 109.18L60.008 107.844ZM48.6749 120.843V157H50.6749V120.843H48.6749ZM49.6749 156H1.18693V158H49.6749V156ZM2.18693 157V10.7H0.186927V157H2.18693ZM1.18693 11.7H49.6749V9.69999H1.18693V11.7ZM48.6749 10.7V63.786H50.6749V10.7H48.6749ZM50.4162 64.4572L98.4862 11.3712L97.0037 10.0288L48.9337 63.1148L50.4162 64.4572ZM97.7449 11.7H151.458V9.69999H97.7449V11.7ZM150.718 10.0273L92.198 74.3993L93.6779 75.7447L152.198 11.3727L150.718 10.0273ZM92.1379 75.672L153.584 157.6L155.184 156.4L93.7379 74.472L92.1379 75.672ZM154.384 156H97.3269V158H154.384V156ZM98.1253 156.398L61.5503 107.91L59.9536 109.114L96.5286 157.602L98.1253 156.398ZM291.623 157L290.623 157.006L290.63 158H291.623V157ZM291.205 90.329L292.205 90.3227L292.183 86.7241L290.346 89.8185L291.205 90.329ZM259.437 143.833V144.833H260.007L260.297 144.344L259.437 143.833ZM237.701 143.833L236.852 144.36L237.145 144.833H237.701V143.833ZM205.933 92.628L206.783 92.1008L204.933 89.1193V92.628H205.933ZM205.933 157V158H206.933V157H205.933ZM160.998 157H159.998V158H160.998V157ZM160.998 10.7V9.69999H159.998V10.7H160.998ZM201.544 10.7L202.398 10.1784L202.105 9.69999H201.544V10.7ZM249.196 88.657L248.343 89.1785L249.208 90.5931L250.056 89.1684L249.196 88.657ZM295.594 10.7V9.69999H295.026L294.735 10.1885L295.594 10.7ZM336.14 10.7L337.14 10.6971L337.138 9.69999H336.14V10.7ZM336.558 157V158H337.561L337.558 156.997L336.558 157ZM292.623 156.994L292.205 90.3227L290.205 90.3353L290.623 157.006L292.623 156.994ZM290.346 89.8185L258.578 143.322L260.297 144.344L292.065 90.8395L290.346 89.8185ZM259.437 142.833H237.701V144.833H259.437V142.833ZM238.551 143.306L206.783 92.1008L205.084 93.1552L236.852 144.36L238.551 143.306ZM204.933 92.628V157H206.933V92.628H204.933ZM205.933 156H160.998V158H205.933V156ZM161.998 157V10.7H159.998V157H161.998ZM160.998 11.7H201.544V9.69999H160.998V11.7ZM200.691 11.2215L248.343 89.1785L250.05 88.1355L202.398 10.1784L200.691 11.2215ZM250.056 89.1684L296.454 11.2114L294.735 10.1885L248.337 88.1456L250.056 89.1684ZM295.594 11.7H336.14V9.69999H295.594V11.7ZM335.14 10.7028L335.558 157.003L337.558 156.997L337.14 10.6971L335.14 10.7028ZM336.558 156H291.623V158H336.558V156ZM466.16 17.388L465.754 18.3018L465.754 18.3018L466.16 17.388ZM489.359 36.616L488.52 37.161L488.52 37.161L489.359 36.616ZM489.359 95.136L488.52 94.591L488.52 94.591L489.359 95.136ZM466.16 114.364L465.754 113.45L465.754 113.45L466.16 114.364ZM409.73 121.052V120.052H408.73V121.052H409.73ZM409.73 157V158H410.73V157H409.73ZM360.406 157H359.406V158H360.406V157ZM360.406 10.7V9.69999H359.406V10.7H360.406ZM442.752 78.625L443.41 79.3776L443.419 79.37L443.427 79.3621L442.752 78.625ZM442.752 53.336L442.076 54.0732L442.084 54.081L442.093 54.0886L442.752 53.336ZM409.73 48.738V47.738H408.73V48.738H409.73ZM409.73 83.014H408.73V84.014H409.73V83.014ZM430.839 11.7C444.246 11.7 455.875 13.9115 465.754 18.3018L466.566 16.4742C456.38 11.9472 444.462 9.69999 430.839 9.69999V11.7ZM465.754 18.3018C475.627 22.6902 483.202 28.9794 488.52 37.161L490.197 36.071C484.647 27.5326 476.756 21.0032 466.566 16.4742L465.754 18.3018ZM488.52 37.161C493.837 45.3401 496.51 54.8992 496.51 65.876H498.51C498.51 54.5595 495.749 44.6119 490.197 36.071L488.52 37.161ZM496.51 65.876C496.51 76.8528 493.837 86.4119 488.52 94.591L490.197 95.681C495.749 87.1401 498.51 77.1925 498.51 65.876H496.51ZM488.52 94.591C483.202 102.773 475.627 109.062 465.754 113.45L466.566 115.278C476.756 110.749 484.647 104.219 490.197 95.681L488.52 94.591ZM465.754 113.45C455.875 117.84 444.246 120.052 430.839 120.052V122.052C444.462 122.052 456.38 119.805 466.566 115.278L465.754 113.45ZM430.839 120.052H409.73V122.052H430.839V120.052ZM408.73 121.052V157H410.73V121.052H408.73ZM409.73 156H360.406V158H409.73V156ZM361.406 157V10.7H359.406V157H361.406ZM360.406 11.7H430.839V9.69999H360.406V11.7ZM427.704 84.014C434.515 84.014 439.811 82.5268 443.41 79.3776L442.093 77.8724C439.004 80.5752 434.268 82.014 427.704 82.014V84.014ZM443.427 79.3621C447.019 76.0702 448.768 71.5301 448.768 65.876H446.768C446.768 71.0899 445.173 75.0491 442.076 77.8878L443.427 79.3621ZM448.768 65.876C448.768 60.2235 447.019 55.7409 443.41 52.5834L442.093 54.0886C445.173 56.783 446.768 60.6605 446.768 65.876H448.768ZM443.427 52.5988C439.828 49.2994 434.525 47.738 427.704 47.738V49.738C434.258 49.738 438.987 51.2419 442.076 54.0732L443.427 52.5988ZM427.704 47.738H409.73V49.738H427.704V47.738ZM408.73 48.738V83.014H410.73V48.738H408.73ZM409.73 84.014H427.704V82.014H409.73V84.014ZM514.264 1.92199V0.921991H513.264V1.92199H514.264ZM561.498 1.92199H562.498V0.921991H561.498V1.92199ZM561.498 157V158H562.498V157H561.498ZM514.264 157H513.264V158H514.264V157ZM514.264 2.92199H561.498V0.921991H514.264V2.92199ZM560.498 1.92199V157H562.498V1.92199H560.498ZM561.498 156H514.264V158H561.498V156ZM515.264 157V1.92199H513.264V157H515.264ZM679.619 54.172L678.969 54.932L678.975 54.9369L679.619 54.172ZM695.503 157V158H696.503V157H695.503ZM651.613 157H650.613V158H651.613V157ZM651.613 141.952H652.613L650.71 141.522L651.613 141.952ZM596.019 154.492L595.564 155.382L595.576 155.388L595.587 155.394L596.019 154.492ZM581.598 141.743L580.737 142.251L580.744 142.264L580.752 142.277L581.598 141.743ZM589.749 97.853L589.188 97.0251L589.188 97.0251L589.749 97.853ZM648.06 89.075V90.075H649.246L649.045 88.9056L648.06 89.075ZM610.858 78.207L611.136 79.1676L611.148 79.1642L611.159 79.1606L610.858 78.207ZM597.273 84.686L596.372 85.1211L596.898 86.2083L597.868 85.4896L597.273 84.686ZM582.225 53.545L581.7 52.694L580.932 53.1677L581.324 53.9801L582.225 53.545ZM605.842 44.14L606.077 45.1119L606.088 45.1093L605.842 44.14ZM642.417 127.949L641.852 127.124L641.852 127.124L642.417 127.949ZM648.269 119.798L649.214 120.125L649.269 119.966V119.798H648.269ZM648.269 111.856H649.269V110.856H648.269V111.856ZM625.07 128.158L624.389 128.891L624.416 128.916L624.445 128.939L625.07 128.158ZM633.639 41.587C653.567 41.587 668.626 46.0861 678.969 54.932L680.269 53.412C669.433 44.1446 653.838 39.587 633.639 39.587V41.587ZM678.975 54.9369C689.267 63.6038 694.503 77.0695 694.503 95.554H696.503C696.503 76.6972 691.15 62.5748 680.263 53.4071L678.975 54.9369ZM694.503 95.554V157H696.503V95.554H694.503ZM695.503 156H651.613V158H695.503V156ZM652.613 157V141.952H650.613V157H652.613ZM650.71 141.522C645.49 152.497 635.123 158.09 619.218 158.09V160.09C635.638 160.09 646.867 154.258 652.516 142.382L650.71 141.522ZM619.218 158.09C610.271 158.09 602.693 156.576 596.45 153.59L595.587 155.394C602.163 158.539 610.052 160.09 619.218 160.09V158.09ZM596.474 153.602C590.343 150.468 585.68 146.334 582.443 141.209L580.752 142.277C584.204 147.742 589.154 152.107 595.564 155.382L596.474 153.602ZM582.459 141.235C579.351 135.964 577.791 130.08 577.791 123.56H575.791C575.791 130.415 577.436 136.654 580.737 142.251L582.459 141.235ZM577.791 123.56C577.791 112.574 581.971 104.33 590.31 98.6809L589.188 97.0251C580.249 103.08 575.791 111.974 575.791 123.56H577.791ZM590.31 98.6809C598.704 92.9942 611.562 90.075 629.041 90.075V88.075C611.407 88.075 598.071 91.0078 589.188 97.0251L590.31 98.6809ZM629.041 90.075H648.06V88.075H629.041V90.075ZM649.045 88.9056C648.235 84.1878 645.906 80.5855 642.056 78.1936C638.248 75.8274 633.039 74.699 626.533 74.699V76.699C632.845 76.699 637.633 77.7999 641.001 79.8924C644.327 81.9592 646.353 85.0448 647.074 89.2444L649.045 88.9056ZM626.533 74.699C621.268 74.699 615.941 75.553 610.557 77.2534L611.159 79.1606C616.364 77.517 621.487 76.699 626.533 76.699V74.699ZM610.58 77.2464C605.191 78.8064 600.55 81.0137 596.678 83.8824L597.868 85.4896C601.519 82.785 605.936 80.6729 611.136 79.1676L610.58 77.2464ZM598.173 84.2509L583.125 53.1099L581.324 53.9801L596.372 85.1211L598.173 84.2509ZM582.75 54.396C589.191 50.4216 596.961 47.3219 606.077 45.1118L605.606 43.1681C596.331 45.4168 588.356 48.587 581.7 52.694L582.75 54.396ZM606.088 45.1093C615.347 42.76 624.53 41.587 633.639 41.587V39.587C624.356 39.587 615.008 40.7826 605.596 43.1707L606.088 45.1093ZM633.43 131.666C636.966 131.666 640.161 130.704 642.982 128.774L641.852 127.124C639.379 128.816 636.581 129.666 633.43 129.666V131.666ZM642.982 128.774C645.838 126.82 647.904 123.91 649.214 120.125L647.324 119.471C646.126 122.932 644.29 125.456 641.852 127.124L642.982 128.774ZM649.269 119.798V111.856H647.269V119.798H649.269ZM648.269 110.856H636.565V112.856H648.269V110.856ZM636.565 110.856C631.678 110.856 627.839 111.665 625.194 113.427C622.479 115.238 621.144 117.974 621.144 121.47H623.144C623.144 118.557 624.213 116.486 626.304 115.092C628.467 113.65 631.837 112.856 636.565 112.856V110.856ZM621.144 121.47C621.144 124.397 622.236 126.891 624.389 128.891L625.75 127.425C624.002 125.802 623.144 123.838 623.144 121.47H621.144ZM624.445 128.939C626.76 130.791 629.789 131.666 633.43 131.666V129.666C630.105 129.666 627.56 128.869 625.695 127.377L624.445 128.939ZM841.156 42.677L842.084 43.051L842.638 41.677H841.156V42.677ZM794.131 159.299L793.204 158.925L793.203 158.926L794.131 159.299ZM771.768 190.649L772.326 191.479L772.326 191.479L771.768 190.649ZM719.518 196.71L719.804 195.752L719.79 195.748L719.518 196.71ZM704.261 189.395L703.361 188.959L703.017 189.671L703.63 190.17L704.261 189.395ZM719.936 157L720.544 156.206L719.57 155.461L719.036 156.564L719.936 157ZM727.878 161.389L727.522 162.323L727.529 162.326L727.537 162.329L727.878 161.389ZM748.36 158.463L749.117 159.117L749.52 158.65L749.284 158.08L748.36 158.463ZM700.29 42.677V41.677H698.792L699.367 43.0604L700.29 42.677ZM748.778 42.677L749.711 42.3172L749.464 41.677H748.778V42.677ZM772.395 103.914L771.462 104.274L772.387 106.672L773.326 104.279L772.395 103.914ZM796.43 42.677V41.677H795.749L795.499 42.3116L796.43 42.677ZM840.229 42.303L793.204 158.925L795.059 159.673L842.084 43.051L840.229 42.303ZM793.203 158.926C787.252 173.736 779.898 183.982 771.211 189.819L772.326 191.479C781.473 185.333 789.028 174.68 795.059 159.672L793.203 158.926ZM771.211 189.819C762.49 195.678 751.756 198.636 738.955 198.636V200.636C752.07 200.636 763.212 197.602 772.326 191.479L771.211 189.819ZM738.955 198.636C732.649 198.636 726.266 197.677 719.804 195.752L719.233 197.668C725.868 199.645 732.443 200.636 738.955 200.636V198.636ZM719.79 195.748C713.466 193.961 708.517 191.573 704.893 188.62L703.63 190.17C707.529 193.348 712.751 195.837 719.246 197.672L719.79 195.748ZM705.161 189.831L720.836 157.436L719.036 156.564L703.361 188.959L705.161 189.831ZM719.329 157.794C721.778 159.667 724.511 161.176 727.522 162.323L728.234 160.455C725.394 159.372 722.832 157.956 720.544 156.206L719.329 157.794ZM727.537 162.329C730.693 163.477 733.735 164.061 736.656 164.061V162.061C734.004 162.061 731.194 161.531 728.22 160.449L727.537 162.329ZM736.656 164.061C742.017 164.061 746.23 162.459 749.117 159.117L747.603 157.809C745.196 160.598 741.606 162.061 736.656 162.061V164.061ZM749.284 158.08L701.214 42.2936L699.367 43.0604L747.437 158.846L749.284 158.08ZM700.29 43.677H748.778V41.677H700.29V43.677ZM747.845 43.0368L771.462 104.274L773.328 103.554L749.711 42.3172L747.845 43.0368ZM773.326 104.279L797.361 43.0423L795.499 42.3116L771.464 103.549L773.326 104.279ZM796.43 43.677H841.156V41.677H796.43V43.677ZM966.328 110.811V111.811H967.267L967.326 110.873L966.328 110.811ZM886.908 110.811V109.811H885.448L885.975 111.172L886.908 110.811ZM895.268 120.843L894.749 121.698L894.76 121.705L894.772 121.711L895.268 120.843ZM922.438 122.306L922.099 121.365L922.087 121.37L922.438 122.306ZM933.724 115.827L934.434 115.123L933.817 114.501L933.119 115.03L933.724 115.827ZM958.386 140.698L959.126 141.371L959.764 140.668L959.096 139.994L958.386 140.698ZM872.069 151.566L871.626 152.463L871.636 152.468L872.069 151.566ZM847.825 130.248L848.67 129.714L847.825 130.248ZM847.616 69.22L846.77 68.6865L846.768 68.69L847.616 69.22ZM870.815 48.111L870.362 47.2191L870.357 47.2217L870.815 48.111ZM935.605 47.484L935.168 48.3837L935.173 48.3861L935.605 47.484ZM958.386 67.757L957.538 68.287L957.544 68.2964L958.386 67.757ZM892.342 76.744L892.979 77.515L892.979 77.515L892.342 76.744ZM886.072 88.03L885.091 87.8339L884.852 89.03H886.072V88.03ZM922.856 88.03V89.03H924.083L923.835 87.8283L922.856 88.03ZM916.586 76.953L915.93 77.7076L915.939 77.7159L915.949 77.724L916.586 76.953ZM965.955 99.734C965.955 100.39 965.749 104.034 965.33 110.749L967.326 110.873C967.742 104.212 967.955 100.472 967.955 99.734H965.955ZM966.328 109.811H886.908V111.811H966.328V109.811ZM885.975 111.172C887.725 115.694 890.656 119.213 894.749 121.698L895.787 119.988C892.077 117.736 889.434 114.567 887.84 110.45L885.975 111.172ZM894.772 121.711C898.863 124.049 903.923 125.187 909.898 125.187V123.187C904.168 123.187 899.475 122.095 895.764 119.975L894.772 121.711ZM909.898 125.187C914.989 125.187 919.297 124.552 922.789 123.242L922.087 121.37C918.89 122.568 914.839 123.187 909.898 123.187V125.187ZM922.776 123.247C926.383 121.949 930.234 119.729 934.328 116.624L933.119 115.03C929.132 118.055 925.459 120.155 922.099 121.365L922.776 123.247ZM933.014 116.531L957.676 141.402L959.096 139.994L934.434 115.123L933.014 116.531ZM957.646 140.025C946.747 152.014 930.406 158.09 908.435 158.09V160.09C930.771 160.09 947.732 153.904 959.126 141.371L957.646 140.025ZM908.435 158.09C894.762 158.09 882.793 155.604 872.501 150.664L871.636 152.468C882.244 157.56 894.519 160.09 908.435 160.09V158.09ZM872.511 150.669C862.211 145.588 854.276 138.602 848.67 129.714L846.979 130.782C852.799 140.008 861.026 147.233 871.626 152.463L872.511 150.669ZM848.67 129.714C843.064 120.826 840.256 110.842 840.256 99.734H838.256C838.256 111.198 841.16 121.556 846.979 130.782L848.67 129.714ZM840.256 99.734C840.256 88.4793 842.998 78.4947 848.464 69.75L846.768 68.69C841.086 77.78 838.256 88.1381 838.256 99.734H840.256ZM848.461 69.7535C854.076 60.8518 861.674 53.9366 871.272 49.0003L870.357 47.2217C860.449 52.3174 852.58 59.4748 846.77 68.6865L848.461 69.7535ZM871.267 49.0029C881.005 44.0652 891.925 41.587 904.046 41.587V39.587C891.644 39.587 880.41 42.1248 870.362 47.2191L871.267 49.0029ZM904.046 41.587C915.474 41.587 925.842 43.858 935.168 48.3836L936.041 46.5843C926.418 41.914 915.747 39.587 904.046 39.587V41.587ZM935.173 48.3861C944.618 52.9033 952.066 59.533 957.538 68.287L959.234 67.227C953.558 58.1463 945.819 51.2607 936.036 46.5819L935.173 48.3861ZM957.544 68.2964C963.137 77.0268 965.955 87.4913 965.955 99.734H967.955C967.955 87.1754 965.06 76.3218 959.228 67.2176L957.544 68.2964ZM904.464 71.773C899.397 71.773 895.119 73.1528 891.705 75.973L892.979 77.515C895.974 75.0405 899.777 73.773 904.464 73.773V71.773ZM891.705 75.973C888.29 78.7941 886.102 82.7778 885.091 87.8339L887.052 88.2261C887.992 83.5288 889.984 79.9885 892.979 77.515L891.705 75.973ZM886.072 89.03H922.856V87.03H886.072V89.03ZM923.835 87.8283C922.822 82.906 920.631 78.9976 917.223 76.182L915.949 77.724C918.95 80.2031 920.939 83.6793 921.876 88.2317L923.835 87.8283ZM917.242 76.1984C913.828 73.2302 909.544 71.773 904.464 71.773V73.773C909.137 73.773 912.934 75.1025 915.93 77.7076L917.242 76.1984ZM1026.8 55.008H1025.8V57.682L1027.55 55.6642L1026.8 55.008ZM1063.79 40.587H1064.79V39.587H1063.79V40.587ZM1063.79 82.387L1063.64 83.3762L1064.79 83.5461V82.387H1063.79ZM1029.09 157V158H1030.09V157H1029.09ZM981.861 157H980.861V158H981.861V157ZM981.861 42.677V41.677H980.861V42.677H981.861ZM1026.8 42.677H1027.8V41.677H1026.8V42.677ZM1027.55 55.6642C1035.67 46.3265 1047.69 41.587 1063.79 41.587V39.587C1047.28 39.587 1034.64 44.4615 1026.04 54.3518L1027.55 55.6642ZM1062.79 40.587V82.387H1064.79V40.587H1062.79ZM1063.94 81.3978C1060.13 80.8346 1056.6 80.551 1053.34 80.551V82.551C1056.49 82.551 1059.92 82.8248 1063.64 83.3762L1063.94 81.3978ZM1053.34 80.551C1045.1 80.551 1038.74 82.6477 1034.44 87.0155C1030.15 91.38 1028.09 97.8424 1028.09 106.213H1030.09C1030.09 98.1422 1032.08 92.2736 1035.87 88.4175C1039.66 84.5646 1045.42 82.551 1053.34 82.551V80.551ZM1028.09 106.213V157H1030.09V106.213H1028.09ZM1029.09 156H981.861V158H1029.09V156ZM982.861 157V42.677H980.861V157H982.861ZM981.861 43.677H1026.8V41.677H981.861V43.677ZM1025.8 42.677V55.008H1027.8V42.677H1025.8Z" fill="#1D1D1D" fill-opacity="0.25"/>
</svg>
