<svg width="26" height="26" viewBox="0 0 26 26" fill="none" xmlns="http://www.w3.org/2000/svg">
<path d="M3.45717 4.81222C3.50111 4.75331 3.54697 4.6944 3.59473 4.63549C4.72083 3.20747 6.1234 2.0545 7.70676 1.25522C9.29012 0.455953 11.017 0.0291941 12.7696 0.00406266C12.8289 0.00203133 12.8862 0 12.9454 0C13.0046 0 13.0619 0.00203133 13.1212 0.00406266C14.8804 0.0294387 16.6136 0.459446 18.2016 1.26453C19.7897 2.06962 21.195 3.23071 22.3209 4.66799C22.353 4.70465 22.383 4.74331 22.4107 4.78378C22.4121 4.78684 22.4141 4.78959 22.4164 4.79191C24.1992 7.10764 25.1733 10.008 25.1733 13.0005C25.1733 15.993 24.1992 18.8934 22.4164 21.2091C22.4141 21.2114 22.4121 21.2142 22.4107 21.2172C22.383 21.2577 22.353 21.2964 22.3209 21.333L22.319 21.3351C21.1932 22.7718 19.7882 23.9325 18.2004 24.7372C16.6127 25.542 14.8799 25.9717 13.1212 25.997C13.0039 26.001 12.8869 26.001 12.7696 25.997C11.017 25.9718 9.29012 25.5451 7.70676 24.7458C6.1234 23.9465 4.72083 22.7935 3.59473 21.3655C3.54697 21.3066 3.50111 21.2477 3.45717 21.1888C1.68499 18.8758 0.71731 15.9838 0.71731 13.0005C0.71731 10.0172 1.68499 7.12523 3.45717 4.81222ZM6.16454 12.645C6.18349 10.7187 6.44502 8.80372 6.94217 6.95121C5.85374 6.586 4.81408 6.07328 3.84885 5.42568C2.3216 7.489 1.46004 10.0204 1.39177 12.645H6.16454ZM12.611 0.729247C10.5686 0.952693 8.79167 3.19528 7.76566 6.47791C9.34505 6.93877 10.9734 7.18316 12.611 7.20513V0.729247ZM13.2798 7.20513C14.9174 7.18316 16.5457 6.93877 18.1251 6.47791C17.0991 3.19528 15.3222 0.952693 13.2798 0.729247V7.20513ZM13.2798 7.91609V12.645H19.0575C19.0393 10.7891 18.792 8.94382 18.3219 7.15637C16.6787 7.63814 14.9842 7.89347 13.2798 7.91609ZM13.2798 13.356V18.0849C14.9842 18.1076 16.6787 18.3629 18.3219 18.8446C18.792 17.0572 19.0393 15.2119 19.0575 13.356H13.2798ZM13.2798 18.7959V25.2718C15.3222 25.0483 17.0991 22.8057 18.1251 19.5231C16.5457 19.0622 14.9174 18.8179 13.2798 18.7959ZM12.611 18.7959C10.9734 18.8179 9.34505 19.0622 7.76566 19.5231C8.79167 22.8057 10.5686 25.0483 12.611 25.2718V18.7959ZM12.611 18.0849V13.356H6.83327C6.85151 15.2125 7.09881 17.0585 7.56886 18.8467C9.21161 18.3624 10.9064 18.1063 12.611 18.0849ZM12.611 12.645V7.91609C10.9064 7.89468 9.21161 7.63863 7.56886 7.15434C7.09882 8.94248 6.85151 10.7885 6.83327 12.645H12.611ZM4.28065 4.87316C5.17589 5.46614 6.13741 5.93769 7.14279 6.27681C7.87647 3.95703 8.97891 2.11258 10.2915 1.03801C7.96328 1.62532 5.86339 2.96513 4.28065 4.87316ZM15.5993 1.03801C16.9119 2.11258 18.0143 3.95703 18.748 6.27681C19.7527 5.93664 20.714 5.46587 21.6101 4.87519C20.0284 2.96551 17.9282 1.62479 15.5993 1.03801ZM22.0419 5.42365C21.0769 6.07259 20.0372 6.58668 18.9486 6.95324C19.4459 8.80503 19.7075 10.7193 19.7263 12.645H24.499C24.4308 10.0198 23.5692 7.48774 22.0419 5.42365ZM19.7263 13.356C19.7075 15.2817 19.4459 17.196 18.9486 19.0478V19.0498C20.0375 19.4148 21.0772 19.9283 22.0419 20.5774C23.5692 18.5133 24.4308 15.9812 24.499 13.356H19.7263ZM21.6101 21.1258C20.714 20.5351 19.7527 20.0644 18.748 19.7242C18.0143 22.044 16.9119 23.8884 15.5993 24.963C17.9282 24.3762 20.0284 23.0355 21.6101 21.1258ZM10.2915 24.963C8.97891 23.8884 7.87647 22.044 7.14279 19.7242C6.13741 20.0633 5.17589 20.5349 4.28065 21.1279C5.86339 23.0359 7.96328 24.3757 10.2915 24.963ZM3.84885 20.5753C4.81408 19.9277 5.85374 19.415 6.94217 19.0498C6.44502 17.1973 6.18349 15.2823 6.16454 13.356H1.39177C1.46004 15.9806 2.3216 18.512 3.84885 20.5753Z" fill="black"/>
</svg>
