<svg width="26" height="18" viewBox="0 0 26 18" fill="none" xmlns="http://www.w3.org/2000/svg">
<path d="M25.2544 12.0322C25.1935 10.5145 24.9498 8.8318 24.5843 7.24809C24.2188 5.73036 23.7619 4.31162 23.2136 3.22282C21.0813 -0.835448 18.7662 -0.208561 15.9943 0.583295C15.1109 0.814254 14.1666 1.07821 13.1919 1.17719H12.8873C11.9125 1.07821 10.9682 0.814254 10.0849 0.583295C7.3129 -0.175567 4.99786 -0.835448 2.86559 3.25581C2.31729 4.34461 1.82991 5.76336 1.49484 7.28108C1.12931 8.8648 0.885621 10.5475 0.824699 12.0652C0.763777 13.7479 0.916082 14.9687 1.25115 15.8265C1.58622 16.6184 2.0736 17.1133 2.71328 17.3113C3.29204 17.4762 3.96218 17.4102 4.66279 17.0803C5.85077 16.5524 7.22151 15.4306 8.5618 14.0779C9.50609 13.088 11.2728 12.5931 13.0396 12.5931C14.8063 12.5931 16.573 13.088 17.5173 14.0779C18.8576 15.4306 20.2284 16.5524 21.4164 17.0803C22.117 17.3773 22.7871 17.4762 23.3659 17.3113C23.9751 17.1133 24.4929 16.6514 24.828 15.7935C25.1631 14.9687 25.3154 13.7479 25.2544 12.0322ZM23.7923 15.3316C23.6095 15.7935 23.3659 16.0575 23.0612 16.1565C22.7262 16.2555 22.2997 16.1895 21.8123 15.9915C20.7462 15.5296 19.4973 14.5068 18.2789 13.253C17.1213 11.9992 15.0805 11.3723 13.0396 11.3723C10.9987 11.3723 8.95779 11.9992 7.76981 13.187C6.52091 14.4408 5.27201 15.4966 4.23633 15.9255C3.74896 16.1235 3.3225 16.2225 2.98743 16.0905C2.68282 15.9915 2.43913 15.7276 2.25637 15.2656C2.01268 14.6388 1.89083 13.6159 1.95176 12.0982C2.01268 10.6795 2.22591 9.06276 2.59144 7.54503C2.92651 6.12629 3.35296 4.80653 3.8708 3.81671C5.54616 0.550301 7.49566 1.07821 9.8107 1.73809C10.755 2.00204 11.7297 2.26599 12.7959 2.36497C12.8263 2.36497 12.8263 2.36497 12.8568 2.36497H13.1919C13.2223 2.36497 13.2223 2.36497 13.2528 2.36497C14.3494 2.26599 15.3241 2.00204 16.2684 1.73809C18.5835 1.1112 20.533 0.550301 22.2083 3.81671C22.7262 4.80653 23.1526 6.0933 23.4877 7.54503C23.8228 9.06276 24.0665 10.6465 24.1274 12.0982C24.1883 13.6159 24.0665 14.6388 23.7923 15.3316Z" fill="black" fill-opacity="0.72"/>
<path d="M10.2372 5.59825C9.93256 5.30131 9.56703 5.07035 9.14058 5.03736C9.11012 4.60844 8.92735 4.17952 8.6532 3.88258L8.62274 3.84959C8.28767 3.48666 7.86122 3.2887 7.37384 3.2887C6.88647 3.2887 6.42956 3.51965 6.12495 3.84959C5.8508 4.14653 5.63757 4.57545 5.60711 5.03736C5.18066 5.07035 4.81513 5.26831 4.51052 5.56526L4.48006 5.59825C4.14498 5.96118 3.96222 6.42309 3.96222 6.95099C3.96222 7.47889 4.17545 7.97379 4.48006 8.30373C4.78466 8.63366 5.1502 8.83162 5.60711 8.86462C5.63757 9.32653 5.82034 9.75545 6.12495 10.0524C6.46002 10.4153 6.88647 10.6133 7.37384 10.6133C7.86122 10.6133 8.31813 10.3823 8.62274 10.0524C8.89689 9.72245 9.11012 9.32653 9.14058 8.86462C9.56703 8.83162 9.96302 8.63366 10.2372 8.30373C10.5722 7.9408 10.755 7.47889 10.755 6.95099C10.755 6.42309 10.5418 5.92819 10.2372 5.59825ZM9.47565 7.44589C9.35381 7.57787 9.2015 7.64386 9.01874 7.64386H8.59228C8.28767 7.64386 8.01352 7.9078 8.01352 8.27073V8.69965C8.01352 8.89761 7.9526 9.06258 7.83076 9.19455C7.70891 9.32653 7.55661 9.39252 7.37384 9.39252C7.19108 9.39252 7.03877 9.32653 6.91693 9.19455C6.79509 9.06258 6.73416 8.89761 6.73416 8.69965V8.23774C6.73416 7.9078 6.49048 7.61086 6.15541 7.61086H5.72895C5.54619 7.61086 5.39388 7.54487 5.27204 7.4129C5.18066 7.31392 5.08927 7.14895 5.08927 6.95099C5.08927 6.75303 5.1502 6.58806 5.27204 6.45608C5.27204 6.45608 5.27204 6.45608 5.3025 6.42309C5.42434 6.32411 5.57665 6.25812 5.72895 6.25812H6.15541C6.46002 6.25812 6.73416 5.99417 6.73416 5.63124V5.16933C6.73416 4.97137 6.79509 4.8064 6.91693 4.67443C7.03877 4.54245 7.19108 4.47647 7.37384 4.47647C7.55661 4.47647 7.70891 4.54245 7.83076 4.67443C7.83076 4.67443 7.83076 4.67443 7.86122 4.70742C7.9526 4.8394 8.01352 5.00436 8.01352 5.16933V5.63124C8.01352 5.96118 8.25721 6.25812 8.59228 6.25812H9.01874C9.2015 6.25812 9.35381 6.32411 9.47565 6.45608C9.59749 6.58806 9.65841 6.75303 9.65841 6.95099C9.65841 7.14895 9.59749 7.31392 9.47565 7.44589Z" fill="black" fill-opacity="0.72"/>
<path d="M18.3398 5.76355C18.9286 5.76355 19.4059 5.24648 19.4059 4.60864C19.4059 3.9708 18.9286 3.45374 18.3398 3.45374C17.751 3.45374 17.2737 3.9708 17.2737 4.60864C17.2737 5.24648 17.751 5.76355 18.3398 5.76355Z" fill="black" fill-opacity="0.72"/>
<path d="M18.3398 10.4482C18.9286 10.4482 19.4059 9.93128 19.4059 9.29358C19.4059 8.65588 18.9286 8.13892 18.3398 8.13892C17.751 8.13892 17.2737 8.65588 17.2737 9.29358C17.2737 9.93128 17.751 10.4482 18.3398 10.4482Z" fill="black" fill-opacity="0.72"/>
<path d="M16.177 8.10571C16.7658 8.10571 17.2432 7.58873 17.2432 6.95099C17.2432 6.31325 16.7658 5.79626 16.177 5.79626C15.5882 5.79626 15.1109 6.31325 15.1109 6.95099C15.1109 7.58873 15.5882 8.10571 16.177 8.10571Z" fill="black" fill-opacity="0.72"/>
<path d="M20.5025 8.10571C21.0913 8.10571 21.5687 7.58873 21.5687 6.95099C21.5687 6.31325 21.0913 5.79626 20.5025 5.79626C19.9137 5.79626 19.4364 6.31325 19.4364 6.95099C19.4364 7.58873 19.9137 8.10571 20.5025 8.10571Z" fill="black" fill-opacity="0.72"/>
</svg>
