<svg width="22" height="23" viewBox="0 0 22 23" fill="none" xmlns="http://www.w3.org/2000/svg">
<path d="M19.9047 5.74085H13.3121L12.3525 4.73763C10.1629 2.44748 6.59892 2.44748 4.40943 4.73763L2.10675 7.14605C0.748 8.56656 0 10.4548 0 12.4623C0 16.6078 3.2256 19.9801 7.19086 19.9801H13.619C14.7746 19.9801 15.7143 18.9976 15.7143 17.7885C15.7143 17.3383 15.5833 16.9188 15.3591 16.5706C16.1753 16.2705 16.7619 15.4567 16.7619 14.5028C16.7619 14.0526 16.6309 13.6331 16.4067 13.2848C17.2229 12.9848 17.8095 12.171 17.8095 11.2171C17.8095 10.8184 17.7068 10.4438 17.5277 10.1218H19.9047C21.0602 10.1218 22 9.13941 22 7.93134C22 6.72328 21.0603 5.74085 19.9047 5.74085ZM19.9047 9.02769H13.0953C12.8061 9.02769 12.5714 9.27304 12.5714 9.57533C12.5714 9.87761 12.8061 10.123 13.0953 10.123H15.7143C16.2926 10.123 16.7619 10.6147 16.7619 11.2182C16.7619 11.8217 16.2926 12.3134 15.7143 12.3134H14.1429C13.8537 12.3134 13.619 12.5588 13.619 12.861C13.619 13.1633 13.8537 13.4087 14.1429 13.4087H14.6667C15.245 13.4087 15.7143 13.9005 15.7143 14.5039C15.7143 15.1074 15.245 15.5991 14.6667 15.5991H13.6191C13.3299 15.5991 13.0953 15.8445 13.0953 16.1468C13.0953 16.449 13.3299 16.6944 13.6191 16.6944C14.1974 16.6944 14.6667 17.1862 14.6667 17.7896C14.6667 18.3931 14.1974 18.8848 13.6191 18.8848H7.19086C3.80389 18.8848 1.0476 16.0033 1.0476 12.4623C1.0476 10.7472 1.68663 9.13499 2.84743 7.92148L5.15011 5.51306C6.04165 4.58212 7.2108 4.11663 8.38097 4.11663C9.55114 4.11663 10.7203 4.58212 11.6118 5.51306L11.8308 5.74198H8.90479C8.61565 5.74198 8.38097 5.98733 8.38097 6.28961C8.38097 6.5919 8.61565 6.83725 8.90479 6.83725H19.9048C20.4831 6.83725 20.9524 7.32903 20.9524 7.93247C20.9524 8.53591 20.483 9.02769 19.9047 9.02769Z" fill="black"/>
</svg>
