<svg width="24" height="26" viewBox="0 0 24 26" fill="none" xmlns="http://www.w3.org/2000/svg">
<path d="M7.94469 11.9612C7.68429 11.9612 7.47294 12.2048 7.47294 12.5049V22.2915C7.47294 22.5916 7.68429 22.8352 7.94469 22.8352C8.20509 22.8352 8.41645 22.5916 8.41645 22.2915V12.5049C8.41645 12.2048 8.20509 11.9612 7.94469 11.9612Z" fill="black"/>
<path d="M23.3618 14.9514C23.3618 14.2979 23.1363 13.689 22.7476 13.2399C23.1882 12.6842 23.4128 11.9394 23.3514 11.1641C23.241 9.78201 22.1607 8.69898 20.8907 8.69898H15.0626C15.3513 7.68879 15.8136 5.83702 15.8136 4.34949C15.8136 1.99097 14.0748 0 12.9831 0C12.0037 0 11.3027 0.636116 11.2734 0.662213C11.1611 0.765531 11.096 0.922113 11.096 1.08736V4.77464L8.37777 11.5588L8.26547 11.6251V11.4174C8.26547 11.1173 8.05411 10.8737 7.7937 10.8737H3.07613C1.77505 10.8738 0.717346 12.0927 0.717346 13.5922V22.2912C0.717346 23.7907 1.77505 25.0096 3.07613 25.0096H5.90669C6.92662 25.0096 7.79843 24.2594 8.12678 23.2122C8.91181 23.6776 9.96854 23.9223 10.6243 23.9223H19.2849C20.3124 23.9223 21.2116 23.1241 21.4229 22.0237C21.5314 21.4561 21.4682 20.8852 21.2531 20.3894C21.9494 19.986 22.4183 19.1563 22.4183 18.2136C22.4183 17.8286 22.3419 17.46 22.1975 17.1273C22.8938 16.7228 23.3618 15.8942 23.3618 14.9514ZM21.3719 16.2932C21.1898 16.3183 21.036 16.4607 20.9776 16.6618C20.92 16.863 20.9681 17.0837 21.1021 17.2295C21.3418 17.4894 21.4748 17.8395 21.4748 18.2136C21.4748 18.8997 21.0247 19.476 20.4294 19.5554C20.2473 19.5804 20.0935 19.7228 20.035 19.924C19.9775 20.1252 20.0256 20.3459 20.1596 20.4916C20.47 20.8287 20.5945 21.3017 20.5011 21.7888C20.3851 22.3956 19.8737 22.8349 19.2849 22.8349H10.6243C9.85815 22.8349 8.57308 22.4206 8.12775 21.9063C7.99281 21.7519 7.78901 21.7062 7.61352 21.7888C7.43709 21.8726 7.32197 22.0716 7.32197 22.2912C7.32197 23.1905 6.687 23.9223 5.90669 23.9223H3.07613C2.29583 23.9223 1.66085 23.1905 1.66085 22.2912V13.5922C1.66085 12.6929 2.29583 11.9611 3.07613 11.9611H7.32197V12.5048C7.32197 12.693 7.40689 12.868 7.54651 12.968C7.68428 13.0637 7.85787 13.0735 8.00506 12.9909L8.94857 12.4472C9.04388 12.3928 9.1203 12.3014 9.16559 12.1895L11.9962 5.1215C12.0245 5.04973 12.0395 4.97144 12.0395 4.89315V1.38202C12.2358 1.25699 12.5765 1.08736 12.9831 1.08736C13.5002 1.08736 14.8701 2.56837 14.8701 4.34949C14.8701 6.26329 13.9663 9.02194 13.9578 9.04915C13.9031 9.21552 13.9219 9.40366 14.0097 9.55152C14.0983 9.69832 14.2437 9.7864 14.3984 9.7864H20.8907C21.6776 9.7864 22.3456 10.4356 22.4117 11.2641C22.4617 11.8839 22.2031 12.4733 21.7399 12.8028C21.5956 12.905 21.5097 13.0899 21.5163 13.2867C21.5229 13.4835 21.621 13.6596 21.772 13.7499C22.1711 13.9837 22.4183 14.4447 22.4183 14.9514C22.4183 15.6375 21.9683 16.2139 21.3719 16.2932Z" fill="black"/>
</svg>
