<svg width="27" height="26" viewBox="0 0 27 26" fill="none" xmlns="http://www.w3.org/2000/svg">
<path d="M25.1329 10.7034L20.9113 4.87645C20.076 3.82725 18.7152 3.82586 17.872 4.88491C17.6048 5.22052 17.4229 5.62244 17.3286 6.05119C16.4888 5.24313 15.2773 5.32351 14.5037 6.29518C14.2376 6.63078 14.0557 7.0327 13.9591 7.45999C13.1193 6.65478 11.9078 6.73371 11.1353 7.70537C10.8737 8.03397 10.6941 8.42597 10.5964 8.84341L8.60684 6.34449C7.7715 5.29529 6.4107 5.2939 5.56752 6.35295C4.73107 7.40215 4.73107 9.11133 5.56752 10.1619L13.2113 19.7627L8.67758 20.6567C7.45262 20.8767 6.5286 22.2136 6.5286 23.7691C6.5286 24.9353 7.2842 25.8844 8.21275 25.8844H18.7994C20.4487 25.8844 21.9993 25.0777 23.1658 23.6125L24.9319 21.3943C26.0973 19.9319 26.7384 17.9858 26.7384 15.917C26.7384 13.985 26.1681 12.1334 25.1329 10.7034ZM24.1381 20.3972L22.372 22.6155C21.4176 23.8142 20.1489 24.4741 18.7993 24.4741H8.2127C7.90281 24.4741 7.6513 24.1582 7.6513 23.769C7.6513 22.9116 8.16102 22.1741 8.84478 22.0514L14.4755 20.9401C14.6843 20.8992 14.8561 20.7145 14.9224 20.462C14.9875 20.211 14.9347 19.9332 14.7854 19.7457L6.36128 9.16488C5.96272 8.66427 5.96272 7.84915 6.36692 7.34008C6.56675 7.09047 6.82838 6.96494 7.09 6.96494C7.35162 6.96494 7.61319 7.09047 7.81308 7.34147L13.4303 14.3968C13.6493 14.6718 14.0052 14.6718 14.2241 14.3968C14.333 14.2586 14.3881 14.0781 14.3881 13.8976C14.3881 13.7171 14.3331 13.5366 14.223 13.3984L11.9292 10.5173C11.5306 10.0167 11.5306 9.20295 11.9359 8.69389C12.3334 8.19467 12.9835 8.19467 13.381 8.69389L15.6759 11.5763C15.8948 11.8513 16.2508 11.8513 16.4697 11.5763C16.5786 11.4381 16.6336 11.2577 16.6336 11.0771C16.6336 10.8966 16.5786 10.7161 16.4686 10.5779L15.2975 9.10704C14.899 8.60643 14.899 7.79269 15.3043 7.28363C15.7017 6.78441 16.3518 6.78441 16.7493 7.28363L17.9259 8.76151C17.9282 8.7629 17.927 8.7629 17.927 8.7629L17.9281 8.76429C17.9292 8.76568 17.9292 8.76568 17.9292 8.76568C17.9303 8.76706 17.9303 8.76706 17.9303 8.76706H17.9314C17.9325 8.76706 17.9325 8.76845 17.9325 8.76845C18.1526 9.03075 18.5007 9.02513 18.7151 8.75437C18.934 8.47938 18.934 8.03232 18.7151 7.75733L18.6668 7.69671C18.4737 7.45417 18.3671 7.13119 18.3671 6.78851C18.3671 6.44583 18.4726 6.1243 18.6725 5.8733C19.0722 5.37408 19.7189 5.37547 20.0995 5.8493L24.3032 11.6524C25.1486 12.8215 25.6157 14.3361 25.6157 15.917C25.6157 17.6093 25.0913 19.2 24.1381 20.3972Z" fill="black" fill-opacity="0.69"/>
<path d="M9.65131 3.74137C8.83397 1.4695 7.02855 0 5.05246 0C2.26687 0 0 2.84724 0 6.34601C0 8.82802 1.16991 11.0957 2.97869 12.1237C3.0539 12.166 3.13253 12.1858 3.21 12.1858C3.42331 12.1858 3.62767 12.0306 3.72198 11.7712C3.84887 11.4158 3.72309 10.9984 3.44131 10.8376C2.03335 10.038 1.1228 8.27519 1.1228 6.34601C1.1228 3.6243 2.88554 1.4102 5.05252 1.4102C6.58846 1.4102 7.99194 2.55387 8.62855 4.32229C8.75544 4.67767 9.08891 4.83705 9.37069 4.67483C9.65357 4.51413 9.7793 4.09675 9.65131 3.74137Z" fill="black" fill-opacity="0.69"/>
</svg>
