<svg width="20" height="31" viewBox="0 0 20 31" fill="none" xmlns="http://www.w3.org/2000/svg">
<path d="M5.51069 3.09829C5.76081 3.09829 5.96358 2.86691 5.96358 2.58149C5.96358 2.29607 5.76081 2.0647 5.51069 2.0647C5.26057 2.0647 5.0578 2.29607 5.0578 2.58149C5.0578 2.86691 5.26057 3.09829 5.51069 3.09829Z" fill="black" fill-opacity="0.65"/>
<path d="M7.77512 3.09829H10.9454C11.1955 3.09829 11.3982 2.86689 11.3982 2.58149C11.3982 2.29609 11.1955 2.0647 10.9454 2.0647H7.77512C7.52502 2.0647 7.32224 2.29609 7.32224 2.58149C7.32224 2.86689 7.52502 3.09829 7.77512 3.09829Z" fill="black" fill-opacity="0.65"/>
<path d="M15.9271 30.9696H19.0974C19.3475 30.9696 19.5503 30.7385 19.5503 30.4535V18.0656C19.5499 17.642 19.4585 17.225 19.2838 16.8512L15.9271 9.67801V2.5808C15.9257 1.15613 14.9127 0.001613 13.6627 0H2.79335C1.54332 0.001613 0.530315 1.15613 0.5289 2.5808V28.3888C0.530315 29.8135 1.54332 30.968 2.79335 30.9696H15.4743H15.9271ZM18.6445 18.0656V29.9373H15.9271C13.7105 29.9344 11.9012 27.9153 11.852 25.3896C11.8747 25.2553 11.8498 25.1162 11.7826 25.0029L8.84474 20.0477C8.42463 19.3391 8.58807 18.3765 9.20983 17.8977C9.83159 17.4189 10.6762 17.6052 11.0963 18.3138C11.0989 18.3183 11.1019 18.3227 11.1045 18.3272L13.7485 22.4975C13.8337 22.6317 13.9703 22.7111 14.1156 22.7111H15.4743C15.7244 22.7111 15.9271 22.4799 15.9271 22.1949V11.8717L18.4847 17.3369C18.5894 17.5613 18.6443 17.8115 18.6445 18.0656ZM15.0214 9.80705V21.6787H14.3471L11.8426 17.7284C11.1407 16.5487 9.73258 16.2409 8.69744 17.0409C7.66236 17.8409 7.39227 19.4457 8.09419 20.6254L10.5547 24.7757H1.43468V5.1616H15.0214V9.80705ZM2.79335 1.03232H13.6627C14.4127 1.03329 15.0205 1.72604 15.0214 2.5808V4.12928H1.43468V2.5808C1.43553 1.72604 2.04336 1.03329 2.79335 1.03232ZM2.79335 29.9373C2.04336 29.9363 1.43553 29.2436 1.43468 28.3888V25.808H10.967C11.101 27.4694 11.8694 28.9795 13.0679 29.9373H2.79335Z" fill="black" fill-opacity="0.65"/>
<path d="M8.22802 26.3242C7.47764 26.3242 6.86935 27.0175 6.86935 27.8727C6.86935 28.7279 7.47764 29.4211 8.22802 29.4211C8.9784 29.4211 9.58669 28.7279 9.58669 27.8727C9.58584 27.0179 8.97806 26.3252 8.22802 26.3242ZM8.22802 28.3888C7.97791 28.3888 7.77513 28.1577 7.77513 27.8727C7.77513 27.5876 7.97791 27.3565 8.22802 27.3565C8.47813 27.3565 8.68091 27.5876 8.68091 27.8727C8.68063 28.1576 8.47802 28.3885 8.22802 28.3888Z" fill="black" fill-opacity="0.65"/>
<path d="M2.79334 11.3555H13.6627C13.9128 11.3555 14.1156 11.1244 14.1156 10.8394V6.71012C14.1156 6.42508 13.9128 6.19397 13.6627 6.19397H2.79334C2.54324 6.19397 2.34045 6.42508 2.34045 6.71012V10.8394C2.34045 11.1244 2.54324 11.3555 2.79334 11.3555ZM3.24623 7.22628H13.2098V10.3232H3.24623V7.22628Z" fill="black" fill-opacity="0.65"/>
<path d="M8.22807 8.25854H4.60496C4.35485 8.25854 4.15207 8.48976 4.15207 8.77493C4.15207 9.06011 4.35485 9.29132 4.60496 9.29132H8.22807C8.47818 9.29132 8.68096 9.06011 8.68096 8.77493C8.68096 8.48976 8.47818 8.25854 8.22807 8.25854Z" fill="black" fill-opacity="0.65"/>
<path d="M2.79334 13.4207H9.1338C9.3839 13.4207 9.58669 13.1895 9.58669 12.9043C9.58669 12.6192 9.3839 12.3879 9.1338 12.3879H2.79334C2.54324 12.3879 2.34045 12.6192 2.34045 12.9043C2.34045 13.1895 2.54324 13.4207 2.79334 13.4207Z" fill="black" fill-opacity="0.65"/>
<path d="M9.13379 14.4526H6.41645C6.16634 14.4526 5.96356 14.6839 5.96356 14.9691C5.96356 15.2544 6.16634 15.4857 6.41645 15.4857H9.13379C9.3839 15.4857 9.58668 15.2544 9.58668 14.9691C9.58668 14.6839 9.3839 14.4526 9.13379 14.4526Z" fill="black" fill-opacity="0.65"/>
<path d="M2.79334 17.5502H5.51068C5.76079 17.5502 5.96357 17.3189 5.96357 17.0337C5.96357 16.7484 5.76079 16.5172 5.51068 16.5172H2.79334C2.54324 16.5172 2.34045 16.7484 2.34045 17.0337C2.34045 17.3189 2.54324 17.5502 2.79334 17.5502Z" fill="black" fill-opacity="0.65"/>
<path d="M2.79334 19.6147H5.51068C5.76079 19.6147 5.96357 19.3835 5.96357 19.0983C5.96357 18.8131 5.76079 18.5819 5.51068 18.5819H2.79334C2.54324 18.5819 2.34045 18.8131 2.34045 19.0983C2.34045 19.3835 2.54324 19.6147 2.79334 19.6147Z" fill="black" fill-opacity="0.65"/>
<path d="M2.79334 23.7447C3.04347 23.7447 3.24623 23.5133 3.24623 23.2279C3.24623 22.9425 3.04347 22.7111 2.79334 22.7111C2.54322 22.7111 2.34045 22.9425 2.34045 23.2279C2.34045 23.5133 2.54322 23.7447 2.79334 23.7447Z" fill="black" fill-opacity="0.65"/>
<path d="M4.60496 23.7447C4.85508 23.7447 5.05785 23.5133 5.05785 23.2279C5.05785 22.9425 4.85508 22.7111 4.60496 22.7111C4.35483 22.7111 4.15207 22.9425 4.15207 23.2279C4.15207 23.5133 4.35483 23.7447 4.60496 23.7447Z" fill="black" fill-opacity="0.65"/>
<path d="M6.41645 23.7447C6.66658 23.7447 6.86934 23.5133 6.86934 23.2279C6.86934 22.9425 6.66658 22.7111 6.41645 22.7111C6.16633 22.7111 5.96356 22.9425 5.96356 23.2279C5.96356 23.5133 6.16633 23.7447 6.41645 23.7447Z" fill="black" fill-opacity="0.65"/>
<path d="M2.79334 21.6801H6.41646C6.66657 21.6801 6.86935 21.4486 6.86935 21.1632C6.86935 20.8778 6.66657 20.6464 6.41646 20.6464H2.79334C2.54324 20.6464 2.34045 20.8778 2.34045 21.1632C2.34045 21.4486 2.54324 21.6801 2.79334 21.6801Z" fill="black" fill-opacity="0.65"/>
<path d="M13.6627 12.3879H10.9454C10.6952 12.3879 10.4925 12.6191 10.4925 12.9041V14.9689C10.4925 15.254 10.6952 15.4851 10.9454 15.4851H13.6627C13.9128 15.4851 14.1156 15.254 14.1156 14.9689V12.9041C14.1156 12.6191 13.9128 12.3879 13.6627 12.3879ZM13.2098 14.4527H11.3982V13.4203H13.2098V14.4527Z" fill="black" fill-opacity="0.65"/>
<path d="M2.79334 15.4857H4.6049C4.85501 15.4857 5.05779 15.2544 5.05779 14.9691C5.05779 14.6839 4.85501 14.4526 4.6049 14.4526H2.79334C2.54324 14.4526 2.34045 14.6839 2.34045 14.9691C2.34045 15.2544 2.54324 15.4857 2.79334 15.4857Z" fill="black" fill-opacity="0.65"/>
</svg>
